<svg width="235" height="25" viewBox="0 0 235 25" fill="none" xmlns="http://www.w3.org/2000/svg">
<path fill-rule="evenodd" clip-rule="evenodd" d="M74.7514 22.8595C74.7514 23.3664 74.4961 23.6198 73.9854 23.6198H64.9885C64.7712 23.6198 64.5946 23.5565 64.4588 23.4298C64.323 23.303 64.2551 23.124 64.2551 22.8926C64.2551 22.6942 64.3013 22.5344 64.3936 22.4132C64.486 22.292 64.6299 22.1928 64.8255 22.1157L65.5264 21.9008C65.7002 21.8457 65.836 21.741 65.9338 21.5868C66.0316 21.4325 66.0805 21.2121 66.0805 20.9256V11.3719C66.0805 11.2176 66.0425 11.0882 65.9664 10.9835C65.8904 10.8788 65.7491 10.7824 65.5427 10.6942L64.5974 10.3802C64.3474 10.259 64.1682 10.1295 64.0595 9.99174C63.9508 9.85399 63.8965 9.68595 63.8965 9.4876C63.8965 9.28926 63.9644 9.12672 64.1002 9L64.1536 8.95545C64.2837 8.85843 64.4534 8.80992 64.6625 8.80992H66.0928L66.0815 8.71333C66.051 8.52014 65.9746 8.33471 65.8523 8.15702C65.6894 7.92011 65.5046 7.65289 65.2982 7.35537C65.0917 7.05785 64.907 6.70248 64.744 6.28926C64.5811 5.87603 64.4996 5.36639 64.4996 4.76033C64.4996 3.3168 64.9885 2.16253 65.9664 1.29752C66.9444 0.432507 68.3352 0 70.1389 0C71.3015 0 72.2659 0.187328 73.0319 0.561983C73.798 0.936639 74.3711 1.43526 74.7514 2.05785C75.1317 2.68044 75.3219 3.36088 75.3219 4.09917C75.3219 4.9697 75.0964 5.62259 74.6455 6.05785C74.1946 6.49311 73.616 6.71074 72.9097 6.71074C72.1273 6.71074 71.4971 6.4573 71.019 5.95041C70.5409 5.44353 70.3019 4.77135 70.3019 3.93388V2.46281C70.3019 2.07713 70.2258 1.79339 70.0737 1.61157C69.9216 1.42975 69.688 1.33884 69.3729 1.33884C68.9708 1.33884 68.6666 1.47658 68.4601 1.75207C68.2537 2.02755 68.1505 2.42424 68.1505 2.94215C68.1505 3.47107 68.2727 3.96694 68.5172 4.42975C68.7617 4.89256 69.0632 5.32507 69.4218 5.72727C69.7803 6.12948 70.1389 6.51515 70.4975 6.8843C70.856 7.25344 71.1576 7.61708 71.402 7.97521L71.4717 8.08256C71.6037 8.29711 71.6918 8.51066 71.7358 8.72322L71.7507 8.80992H74.1647C74.4146 8.80992 74.6075 8.86226 74.7433 8.96694C74.8791 9.07162 74.947 9.23416 74.947 9.45455C74.947 9.78512 74.8058 10.0551 74.5232 10.2645C74.2407 10.4738 73.7952 10.5785 73.1868 10.5785H72.0295V20.876C72.0295 21.1846 72.0757 21.4215 72.1681 21.5868C72.2604 21.7521 72.4098 21.8512 72.6163 21.8843L74.018 22.0992C74.2679 22.1322 74.4526 22.2121 74.5721 22.3388C74.6917 22.4656 74.7514 22.6391 74.7514 22.8595ZM42.6593 23.2397C41.6814 23.7135 40.5405 23.9504 39.2366 23.9504C37.8567 23.9504 36.6207 23.6584 35.5287 23.0744C34.4367 22.4904 33.5755 21.6446 32.9453 20.5372C32.3151 19.4298 32 18.0826 32 16.4959C32 14.9642 32.3287 13.595 32.9861 12.3884C33.6434 11.1818 34.5589 10.2287 35.7324 9.52892C36.9059 8.8292 38.275 8.47934 39.8397 8.47934C41.1762 8.47934 42.3035 8.67769 43.2216 9.07438C44.1398 9.47107 44.8406 10.0083 45.3242 10.686C45.8077 11.3636 46.0495 12.1212 46.0495 12.9587C46.0495 13.8402 45.7968 14.5317 45.2916 15.0331C44.7863 15.5344 44.099 15.7851 43.2298 15.7851C42.3388 15.7851 41.6624 15.5289 41.2006 15.0165C40.7388 14.5041 40.5079 13.8017 40.5079 12.9091V11.8512C40.5079 11.3113 40.4101 10.9036 40.2145 10.6281C40.0189 10.3526 39.7419 10.2149 39.3833 10.2149C39.0247 10.2149 38.7015 10.3609 38.4135 10.6529C38.1256 10.9449 37.9028 11.3829 37.7453 11.9669C37.5877 12.551 37.509 13.2727 37.509 14.1322C37.509 15.3664 37.691 16.4022 38.055 17.2397C38.419 18.0771 38.9161 18.7052 39.5463 19.124C40.1765 19.5427 40.8936 19.7521 41.6977 19.7521C42.5018 19.7521 43.1755 19.6336 43.7187 19.3967C44.262 19.1598 44.6804 18.7603 44.9737 18.1983C45.1367 18.0441 45.2644 17.9449 45.3568 17.9008C45.4491 17.8567 45.5388 17.8347 45.6257 17.8347C45.7344 17.8457 45.824 17.8981 45.8946 17.9917C45.9652 18.0854 45.9951 18.2314 45.9843 18.4298C45.8973 19.5096 45.5659 20.4628 44.99 21.2893C44.4142 22.1157 43.6373 22.7658 42.6593 23.2397ZM59.2269 22.9091C58.0045 23.5813 56.5838 23.9174 54.9648 23.9174C53.3893 23.9174 52.0066 23.5895 50.8168 22.9339C49.627 22.2782 48.7007 21.3719 48.0379 20.2149C47.3751 19.0579 47.0437 17.719 47.0437 16.1983C47.0437 14.7438 47.3914 13.4353 48.0868 12.2727C48.7822 11.1102 49.7438 10.1873 50.9717 9.50413C52.1995 8.82094 53.612 8.47934 55.2093 8.47934C56.7957 8.47934 58.1811 8.80992 59.3655 9.47107C60.5498 10.1322 61.4734 11.0468 62.1362 12.2149C62.7991 13.3829 63.1305 14.7328 63.1305 16.2645C63.1305 17.719 62.7855 19.022 62.0955 20.1736C61.4055 21.3251 60.4493 22.2369 59.2269 22.9091ZM56.2035 22.1983C55.8667 22.2645 55.538 22.1157 55.2175 21.7521C54.8969 21.3884 54.5927 20.7769 54.3047 19.9174C54.0168 19.0579 53.7424 17.9284 53.4817 16.5289C53.2317 15.1295 53.0905 13.978 53.0579 13.0744C53.0253 12.1708 53.0905 11.4876 53.2535 11.0248C53.4165 10.562 53.6664 10.292 54.0032 10.2149C54.3401 10.1488 54.6687 10.2975 54.9893 10.6612C55.3098 11.0248 55.6168 11.6364 55.9102 12.4959C56.2035 13.3554 56.4806 14.4848 56.7414 15.8843C57.0022 17.2837 57.1461 18.438 57.1733 19.3471C57.2005 20.2562 57.1298 20.9421 56.9614 21.405C56.793 21.8678 56.5404 22.1322 56.2035 22.1983ZM85.3619 23.6198C85.8726 23.6198 86.1279 23.3664 86.1279 22.8595C86.1279 22.6391 86.0681 22.4656 85.9486 22.3388C85.8291 22.2121 85.6444 22.1322 85.3945 22.0992L83.9928 21.8843C83.7863 21.8512 83.6369 21.7521 83.5446 21.5868C83.4522 21.4215 83.406 21.1846 83.406 20.876V10.5785H84.5632C85.1717 10.5785 85.6172 10.4738 85.8997 10.2645C86.1822 10.0551 86.3235 9.78512 86.3235 9.45455C86.3235 9.23416 86.2556 9.07162 86.1198 8.96694C85.9839 8.86226 85.7911 8.80992 85.5411 8.80992H83.1271L83.1122 8.72322C83.0682 8.51066 82.9802 8.29711 82.8482 8.08256L82.7785 7.97521C82.534 7.61708 82.2325 7.25344 81.8739 6.8843C81.5154 6.51515 81.1568 6.12948 80.7982 5.72727C80.4397 5.32507 80.1381 4.89256 79.8937 4.42975C79.6492 3.96694 79.5269 3.47107 79.5269 2.94215C79.5269 2.42424 79.6302 2.02755 79.8366 1.75207C80.0431 1.47658 80.3473 1.33884 80.7493 1.33884C81.0644 1.33884 81.2981 1.42975 81.4502 1.61157C81.6023 1.79339 81.6784 2.07713 81.6784 2.46281V3.93388C81.6784 4.77135 81.9174 5.44353 82.3955 5.95041C82.8736 6.4573 83.5038 6.71074 84.2862 6.71074C84.9924 6.71074 85.571 6.49311 86.022 6.05785C86.4729 5.62259 86.6984 4.9697 86.6984 4.09917C86.6984 3.36088 86.5082 2.68044 86.1279 2.05785C85.7476 1.43526 85.1744 0.936639 84.4084 0.561983C83.6424 0.187328 82.678 0 81.5154 0C79.7117 0 78.3208 0.432507 77.3429 1.29752C76.365 2.16253 75.876 3.3168 75.876 4.76033C75.876 5.36639 75.9575 5.87603 76.1205 6.28926C76.2835 6.70248 76.4682 7.05785 76.6747 7.35537C76.8811 7.65289 77.0658 7.92011 77.2288 8.15702C77.3511 8.33471 77.4275 8.52014 77.458 8.71333L77.4692 8.80992H76.039C75.8299 8.80992 75.6602 8.85843 75.5301 8.95545L75.4767 9C75.3409 9.12672 75.273 9.28926 75.273 9.4876C75.273 9.68595 75.3273 9.85399 75.436 9.99174C75.5446 10.1295 75.7239 10.259 75.9738 10.3802L76.9192 10.6942C77.1256 10.7824 77.2669 10.8788 77.3429 10.9835C77.419 11.0882 77.457 11.2176 77.457 11.3719V20.9256C77.457 21.2121 77.4081 21.4325 77.3103 21.5868C77.2125 21.741 77.0767 21.8457 76.9029 21.9008L76.202 22.1157C76.0064 22.1928 75.8625 22.292 75.7701 22.4132C75.6777 22.5344 75.6316 22.6942 75.6316 22.8926C75.6316 23.124 75.6995 23.303 75.8353 23.4298C75.9711 23.5565 76.1477 23.6198 76.365 23.6198H85.3619ZM98.1237 23.1405C97.0697 23.6804 95.8528 23.9504 94.4728 23.9504C92.9516 23.9504 91.6151 23.6336 90.4633 23C89.3116 22.3664 88.4124 21.4793 87.7659 20.3388C87.1194 19.1983 86.7961 17.8788 86.7961 16.3802C86.7961 14.8044 87.1085 13.4242 87.7333 12.2397C88.3581 11.0551 89.2627 10.1322 90.447 9.47107C91.6314 8.80992 93.0548 8.47934 94.7173 8.47934C96.1299 8.47934 97.3468 8.75758 98.3682 9.31405C99.3896 9.87052 100.175 10.6253 100.723 11.5785C101.272 12.5317 101.546 13.5923 101.546 14.7603C101.546 15.2672 101.411 15.6667 101.139 15.9587L101.074 16.0235C100.806 16.2723 100.437 16.3967 99.9655 16.3967H92.5147L92.5307 16.4729C92.7284 17.3804 93.0661 18.1071 93.5438 18.6529C94.3587 19.584 95.4453 20.0496 96.8035 20.0496C97.6728 20.0496 98.4416 19.8512 99.1098 19.4545C99.778 19.0578 100.226 18.5069 100.454 17.8017C100.585 17.6584 100.702 17.562 100.805 17.5124C100.908 17.4628 100.998 17.438 101.074 17.438C101.182 17.438 101.275 17.4821 101.351 17.5702C101.427 17.6584 101.465 17.8072 101.465 18.0165C101.465 19.0964 101.172 20.0854 100.585 20.9835C99.9981 21.8815 99.1777 22.6005 98.1237 23.1405ZM92.3447 15.0717C92.3291 14.8181 92.3214 14.5546 92.3214 14.281C92.3214 13.2452 92.3975 12.4298 92.5496 11.8347C92.7017 11.2397 92.8973 10.8182 93.1363 10.5702C93.3754 10.3223 93.6416 10.1983 93.935 10.1983C94.3153 10.1983 94.6711 10.5234 95.0025 11.1736C95.3339 11.8237 95.4996 12.9036 95.4996 14.4132C95.4996 14.876 95.2932 15.1074 94.8803 15.1074H92.3467L92.3447 15.0717ZM113.705 23.1405C112.651 23.6804 111.434 23.9504 110.054 23.9504C108.533 23.9504 107.197 23.6336 106.045 23C104.893 22.3664 103.994 21.4793 103.347 20.3388C102.701 19.1983 102.378 17.8788 102.378 16.3802C102.378 14.8044 102.69 13.4242 103.315 12.2397C103.94 11.0551 104.844 10.1322 106.029 9.47107C107.213 8.80992 108.636 8.47934 110.299 8.47934C111.711 8.47934 112.928 8.75758 113.95 9.31405C114.971 9.87052 115.756 10.6253 116.305 11.5785C116.854 12.5317 117.128 13.5923 117.128 14.7603C117.128 15.2672 116.992 15.6667 116.721 15.9587L116.656 16.0235C116.388 16.2723 116.018 16.3967 115.547 16.3967H108.096L108.112 16.4729C108.31 17.3804 108.648 18.1071 109.125 18.6529C109.94 19.584 111.027 20.0496 112.385 20.0496C113.254 20.0496 114.023 19.8512 114.691 19.4545C115.36 19.0578 115.808 18.5069 116.036 17.8017C116.166 17.6584 116.283 17.562 116.386 17.5124C116.49 17.4628 116.579 17.438 116.655 17.438C116.764 17.438 116.856 17.4821 116.932 17.5702C117.008 17.6584 117.046 17.8072 117.046 18.0165C117.046 19.0964 116.753 20.0854 116.166 20.9835C115.58 21.8815 114.759 22.6005 113.705 23.1405ZM107.926 15.0717C107.911 14.8181 107.903 14.5546 107.903 14.281C107.903 13.2452 107.979 12.4298 108.131 11.8347C108.283 11.2397 108.479 10.8182 108.718 10.5702C108.957 10.3223 109.223 10.1983 109.517 10.1983C109.897 10.1983 110.253 10.5234 110.584 11.1736C110.915 11.8237 111.081 12.9036 111.081 14.4132C111.081 14.876 110.875 15.1074 110.462 15.1074H107.928L107.926 15.0717ZM127.6 23.4132C127.464 23.551 127.266 23.6198 127.005 23.6198H118.856C118.617 23.6198 118.429 23.5537 118.293 23.4215C118.158 23.2893 118.09 23.1074 118.09 22.876C118.09 22.6997 118.13 22.5537 118.212 22.438C118.293 22.3223 118.405 22.2149 118.546 22.1157L118.921 21.9669C119.062 21.9008 119.16 21.7961 119.214 21.6529C119.269 21.5096 119.296 21.2727 119.296 20.9421V12.5455C119.296 12.281 119.266 12.0909 119.206 11.9752C119.146 11.8595 119.046 11.7686 118.905 11.7025L118.481 11.6529C118.329 11.5647 118.217 11.4711 118.147 11.3719C118.076 11.2727 118.041 11.146 118.041 10.9917C118.041 10.8154 118.095 10.6584 118.204 10.5207C118.312 10.3829 118.497 10.2645 118.758 10.1653L123.387 8.82645C123.658 8.71625 123.886 8.63912 124.071 8.59504C124.256 8.55096 124.413 8.52893 124.544 8.52893C124.729 8.52893 124.867 8.59504 124.959 8.72727L124.989 8.77523C125.065 8.91344 125.118 9.13437 125.147 9.43802L125.271 12.0064L125.299 11.9116C125.354 11.7327 125.415 11.5611 125.481 11.3967C125.878 10.4105 126.402 9.67769 127.054 9.19835C127.706 8.71901 128.418 8.47934 129.189 8.47934C130.123 8.47934 130.841 8.79339 131.34 9.42149C131.84 10.0496 132.09 11.0028 132.09 12.281C132.09 13.5482 131.829 14.4793 131.308 15.0744C130.786 15.6694 130.113 15.9669 129.287 15.9669C128.483 15.9669 127.888 15.7631 127.502 15.3554C127.116 14.9477 126.913 14.3691 126.891 13.6198L126.875 12.9587C126.864 12.7052 126.815 12.5069 126.728 12.3636C126.641 12.2204 126.5 12.1488 126.304 12.1488C126.109 12.1488 125.937 12.2507 125.791 12.4545C125.644 12.6584 125.533 12.9697 125.457 13.3884C125.381 13.8072 125.343 14.3416 125.343 14.9917V20.8099C125.343 21.1185 125.391 21.3636 125.489 21.5455C125.587 21.7273 125.739 21.8402 125.946 21.8843L127.168 22.1322C127.396 22.1653 127.559 22.2507 127.657 22.3884C127.755 22.5262 127.804 22.6887 127.804 22.876C127.804 23.0964 127.736 23.2755 127.6 23.4132ZM140.631 23.9174C142.25 23.9174 143.67 23.5813 144.893 22.9091C146.115 22.2369 147.071 21.3251 147.761 20.1736C148.451 19.022 148.796 17.719 148.796 16.2645C148.796 14.7328 148.465 13.3829 147.802 12.2149C147.139 11.0468 146.216 10.1322 145.031 9.47107C143.847 8.80992 142.462 8.47934 140.875 8.47934C139.278 8.47934 137.865 8.82094 136.637 9.50413C135.41 10.1873 134.448 11.1102 133.753 12.2727C133.057 13.4353 132.71 14.7438 132.71 16.1983C132.71 17.719 133.041 19.0579 133.704 20.2149C134.367 21.3719 135.293 22.2782 136.483 22.9339C137.672 23.5895 139.055 23.9174 140.631 23.9174ZM140.883 21.7521C141.204 22.1157 141.533 22.2645 141.869 22.1983C142.206 22.1322 142.459 21.8678 142.627 21.405C142.796 20.9421 142.866 20.2562 142.839 19.3471C142.812 18.438 142.668 17.2837 142.407 15.8843C142.146 14.4848 141.869 13.3554 141.576 12.4959C141.283 11.6364 140.976 11.0248 140.655 10.6612C140.335 10.2975 140.006 10.1488 139.669 10.2149C139.332 10.292 139.082 10.562 138.919 11.0248C138.756 11.4876 138.691 12.1708 138.724 13.0744C138.756 13.978 138.898 15.1295 139.147 16.5289C139.408 17.9284 139.683 19.0579 139.971 19.9174C140.259 20.7769 140.563 21.3884 140.883 21.7521ZM161.721 23.9504C162.634 23.9504 163.384 23.7824 163.97 23.4463C164.557 23.1102 164.994 22.7107 165.282 22.2479C165.57 21.7851 165.714 21.3609 165.714 20.9752C165.714 20.8099 165.679 20.6722 165.608 20.562C165.538 20.4518 165.443 20.3967 165.323 20.3967C165.269 20.3967 165.22 20.4077 165.176 20.4298C165.133 20.4518 165.095 20.4848 165.062 20.5289C165.008 20.7273 164.924 20.865 164.81 20.9421C164.696 21.0193 164.573 21.0578 164.443 21.0578C164.258 21.0578 164.12 20.9945 164.027 20.8678C163.935 20.741 163.889 20.573 163.889 20.3636V13.0579C163.889 11.6033 163.397 10.4766 162.414 9.67769C161.43 8.87879 159.89 8.47934 157.793 8.47934C156.163 8.47934 154.802 8.6832 153.71 9.09091C152.618 9.49862 151.798 10.0193 151.249 10.6529C150.701 11.2865 150.426 11.9339 150.426 12.595C150.426 13.3003 150.63 13.8375 151.037 14.2066C151.445 14.5758 152.034 14.7603 152.806 14.7603C153.751 14.7603 154.495 14.5041 155.039 13.9917C155.582 13.4793 155.854 12.8154 155.854 12V10.7438C155.854 10.4353 155.949 10.1956 156.139 10.0248C156.329 9.85399 156.565 9.76859 156.848 9.76859C157.152 9.76859 157.394 9.88154 157.573 10.1074C157.752 10.3333 157.842 10.6391 157.842 11.0248L157.842 15.843L157.755 15.8241C157.493 15.7735 157.189 15.7446 156.844 15.7373L156.669 15.7355C154.332 15.7355 152.591 16.1322 151.445 16.9256C150.299 17.719 149.725 18.8264 149.725 20.2479C149.725 21.3278 150.119 22.2149 150.907 22.9091C151.695 23.6033 152.741 23.9504 154.044 23.9504C155.022 23.9504 155.935 23.7493 156.783 23.3471C157.418 23.0455 157.935 22.6493 158.332 22.1586L158.355 22.1299L158.379 22.2039C158.504 22.5612 158.733 22.8813 159.067 23.1642L159.17 23.2479C159.773 23.7163 160.624 23.9504 161.721 23.9504ZM156.106 20.8347C156.372 21.1928 156.723 21.3719 157.158 21.3719L157.251 21.3687C157.436 21.3558 157.615 21.3041 157.789 21.2137L157.842 21.1837V16.9422L157.761 16.9174C157.576 16.8678 157.359 16.843 157.109 16.843C156.685 16.843 156.345 17.0413 156.09 17.438C155.835 17.8347 155.707 18.4187 155.707 19.1901C155.707 19.9284 155.84 20.4766 156.106 20.8347ZM173.212 24C175.146 24 176.629 23.5537 177.661 22.6612C178.694 21.7686 179.21 20.551 179.21 19.0083C179.21 18.0716 179.036 17.2507 178.688 16.5455C178.34 15.8402 177.732 15.2149 176.863 14.6694C175.993 14.124 174.771 13.6088 173.195 13.124C172.609 12.9366 172.155 12.7466 171.834 12.5537C171.514 12.3609 171.294 12.1543 171.174 11.9339C171.055 11.7135 170.995 11.4766 170.995 11.2231C170.995 10.8485 171.131 10.5455 171.403 10.314C171.674 10.0826 172.076 9.96694 172.609 9.96694C173.348 9.96694 174.046 10.2149 174.703 10.7107C175.36 11.2066 176.086 12.0551 176.879 13.2562C177.085 13.5096 177.292 13.6942 177.498 13.8099C177.705 13.9256 177.9 13.9614 178.085 13.9174C178.313 13.8512 178.454 13.6997 178.509 13.4628C178.563 13.2259 178.552 12.8871 178.476 12.4463L178.052 9.40496C178.009 9.0854 177.927 8.8595 177.808 8.72727C177.688 8.59504 177.531 8.52893 177.335 8.52893C177.161 8.52893 176.944 8.58953 176.683 8.71074C176.423 8.83196 176.164 8.95592 175.909 9.08264C175.654 9.20937 175.461 9.27273 175.331 9.27273C175.211 9.27273 175.034 9.20661 174.801 9.07438C174.567 8.94215 174.239 8.80992 173.815 8.67769C173.391 8.54545 172.842 8.47934 172.169 8.47934C171.049 8.47934 170.042 8.6832 169.145 9.09091C168.249 9.49862 167.542 10.0799 167.026 10.8347C166.51 11.5895 166.252 12.4904 166.252 13.5372C166.252 14.4628 166.445 15.2727 166.831 15.9669C167.217 16.6612 167.806 17.2562 168.599 17.7521C169.392 18.2479 170.392 18.6501 171.598 18.9587C172.38 19.168 172.981 19.3802 173.399 19.595C173.817 19.8099 174.105 20.0441 174.263 20.2975C174.421 20.551 174.499 20.832 174.499 21.1405C174.499 21.5482 174.363 21.8843 174.092 22.1488C173.82 22.4132 173.407 22.5455 172.853 22.5455C172.332 22.5455 171.834 22.4325 171.362 22.2066C170.889 21.9807 170.403 21.5923 169.903 21.0413C169.403 20.4904 168.844 19.7355 168.224 18.7769C168.04 18.5234 167.83 18.3471 167.597 18.2479C167.363 18.1488 167.127 18.1543 166.888 18.2645C166.66 18.3526 166.513 18.5399 166.448 18.8264C166.383 19.1129 166.399 19.4656 166.497 19.8843L167.002 23.1736C167.078 23.5041 167.187 23.7245 167.328 23.8347C167.469 23.9449 167.621 24 167.784 24C167.969 24 168.194 23.9394 168.461 23.8182L169.259 23.4545C169.525 23.3333 169.74 23.2727 169.903 23.2727C170.066 23.2727 170.281 23.3333 170.547 23.4545C170.813 23.5758 171.161 23.697 171.59 23.8182C172.019 23.9394 172.56 24 173.212 24ZM188.663 23.3802C187.946 23.7603 187.098 23.9504 186.12 23.9504C184.469 23.9504 183.227 23.5482 182.396 22.7438C181.565 21.9394 181.149 20.6722 181.149 18.9422V11.4711C181.149 11.2397 181.127 11.0634 181.084 10.9421C181.041 10.8209 180.932 10.7218 180.758 10.6446L179.992 10.3967C179.807 10.3085 179.688 10.2011 179.633 10.0744C179.579 9.94766 179.552 9.79063 179.552 9.60331C179.552 9.3719 179.633 9.18182 179.796 9.03306C179.959 8.8843 180.16 8.80992 180.399 8.80992H181.198C181.296 8.80992 181.399 8.77135 181.508 8.69421C181.616 8.61708 181.763 8.46281 181.948 8.23141L184.963 5.70248C185.18 5.43802 185.398 5.23691 185.615 5.09917C185.832 4.96143 186.05 4.89256 186.267 4.89256C186.517 4.89256 186.712 4.9697 186.854 5.12397L186.898 5.17866C187.01 5.3332 187.066 5.55739 187.066 5.85124L187.065 8.80992H190.472C190.711 8.80992 190.896 8.86226 191.026 8.96694C191.157 9.07163 191.222 9.23416 191.222 9.45455C191.222 9.76309 191.086 10.0275 190.814 10.2479L190.754 10.2935C190.48 10.4835 190.065 10.5785 189.51 10.5785H187.065L187.066 18.1157C187.066 18.9421 187.204 19.5537 187.481 19.9504C187.758 20.3471 188.163 20.5455 188.695 20.5455C188.924 20.5455 189.136 20.4959 189.331 20.3967C189.527 20.2975 189.703 20.168 189.861 20.0083C190.018 19.8485 190.168 19.6694 190.309 19.4711C190.45 19.2727 190.586 19.0744 190.717 18.876C190.825 18.832 190.92 18.8512 191.002 18.9339C191.083 19.0165 191.119 19.1846 191.108 19.438C191.032 20.3306 190.784 21.1157 190.366 21.7934C189.948 22.4711 189.38 23 188.663 23.3802ZM199.339 23.9504C200.718 23.9504 201.935 23.6804 202.989 23.1405C204.043 22.6005 204.864 21.8815 205.451 20.9835C206.037 20.0854 206.331 19.0964 206.331 18.0165C206.331 17.8072 206.293 17.6584 206.217 17.5702C206.14 17.4821 206.048 17.438 205.939 17.438C205.863 17.438 205.774 17.4628 205.671 17.5124C205.567 17.562 205.451 17.6584 205.32 17.8017C205.092 18.5069 204.644 19.0578 203.975 19.4545C203.307 19.8512 202.538 20.0496 201.669 20.0496C200.311 20.0496 199.224 19.584 198.409 18.6529C197.932 18.1071 197.594 17.3804 197.396 16.4729L197.38 16.3967H204.831C205.303 16.3967 205.672 16.2723 205.94 16.0235L206.005 15.9587C206.276 15.6667 206.412 15.2672 206.412 14.7603C206.412 13.5923 206.138 12.5317 205.589 11.5785C205.04 10.6253 204.255 9.87052 203.234 9.31405C202.212 8.75758 200.996 8.47934 199.583 8.47934C197.921 8.47934 196.497 8.80992 195.313 9.47107C194.128 10.1322 193.224 11.0551 192.599 12.2397C191.974 13.4242 191.662 14.8044 191.662 16.3802C191.662 17.8788 191.985 19.1983 192.632 20.3388C193.278 21.4793 194.177 22.3664 195.329 23C196.481 23.6336 197.817 23.9504 199.339 23.9504ZM197.187 14.281C197.187 14.5546 197.195 14.8181 197.21 15.0717L197.212 15.1074H199.746C200.159 15.1074 200.365 14.876 200.365 14.4132C200.365 12.9036 200.2 11.8237 199.868 11.1736C199.537 10.5234 199.181 10.1983 198.801 10.1983C198.507 10.1983 198.241 10.3223 198.002 10.5702C197.763 10.8182 197.567 11.2397 197.415 11.8347C197.263 12.4298 197.187 13.2452 197.187 14.281ZM216.289 23.6198C216.55 23.6198 216.748 23.551 216.884 23.4132C217.02 23.2755 217.088 23.0964 217.088 22.876C217.088 22.6887 217.039 22.5262 216.941 22.3884C216.843 22.2507 216.68 22.1653 216.452 22.1322L215.23 21.8843C215.023 21.8402 214.871 21.7273 214.773 21.5455C214.676 21.3636 214.627 21.1185 214.627 20.8099V14.9917C214.627 14.3416 214.665 13.8072 214.741 13.3884C214.817 12.9697 214.928 12.6584 215.075 12.4545C215.222 12.2507 215.393 12.1488 215.588 12.1488C215.784 12.1488 215.925 12.2204 216.012 12.3636C216.099 12.5069 216.148 12.7052 216.159 12.9587L216.175 13.6198C216.197 14.3691 216.4 14.9477 216.786 15.3554C217.172 15.7631 217.767 15.9669 218.571 15.9669C219.397 15.9669 220.07 15.6694 220.592 15.0744C221.114 14.4793 221.374 13.5482 221.374 12.281C221.374 11.0028 221.124 10.0496 220.625 9.42149C220.125 8.79339 219.408 8.47934 218.473 8.47934C217.702 8.47934 216.99 8.71901 216.338 9.19835C215.686 9.67769 215.162 10.4105 214.765 11.3967C214.699 11.5611 214.639 11.7327 214.583 11.9116L214.555 12.0069L214.431 9.43802C214.402 9.13437 214.35 8.91344 214.273 8.77523L214.244 8.72727C214.151 8.59504 214.013 8.52893 213.828 8.52893C213.698 8.52893 213.54 8.55096 213.355 8.59504C213.171 8.63912 212.942 8.71625 212.671 8.82645L208.042 10.1653C207.781 10.2645 207.596 10.3829 207.488 10.5207C207.379 10.6584 207.325 10.8154 207.325 10.9917C207.325 11.146 207.36 11.2727 207.431 11.3719C207.501 11.4711 207.613 11.5647 207.765 11.6529L208.189 11.7025C208.33 11.7686 208.43 11.8595 208.49 11.9752C208.55 12.0909 208.58 12.281 208.58 12.5455V20.9421C208.58 21.2727 208.553 21.5096 208.498 21.6529C208.444 21.7961 208.346 21.9008 208.205 21.9669L207.83 22.1157C207.689 22.2149 207.577 22.3223 207.496 22.438C207.414 22.5537 207.374 22.6997 207.374 22.876C207.374 23.1074 207.442 23.2893 207.577 23.4215C207.713 23.5537 207.901 23.6198 208.14 23.6198H216.289ZM233.452 22.6612C232.419 23.5537 230.936 24 229.002 24C228.35 24 227.81 23.9394 227.38 23.8182C226.951 23.697 226.603 23.5758 226.337 23.4545C226.071 23.3333 225.856 23.2727 225.693 23.2727C225.53 23.2727 225.316 23.3333 225.05 23.4545L224.251 23.8182C223.985 23.9394 223.759 24 223.575 24C223.412 24 223.26 23.9449 223.118 23.8347C222.977 23.7245 222.868 23.5041 222.792 23.1736L222.287 19.8843C222.189 19.4656 222.173 19.1129 222.238 18.8264C222.303 18.5399 222.45 18.3526 222.678 18.2645C222.917 18.1543 223.154 18.1488 223.387 18.2479C223.621 18.3471 223.83 18.5234 224.015 18.7769C224.634 19.7355 225.194 20.4904 225.693 21.0413C226.193 21.5923 226.68 21.9807 227.152 22.2066C227.625 22.4325 228.122 22.5455 228.644 22.5455C229.198 22.5455 229.611 22.4132 229.882 22.1488C230.154 21.8843 230.29 21.5482 230.29 21.1405C230.29 20.832 230.211 20.551 230.053 20.2975C229.896 20.0441 229.608 19.8099 229.19 19.595C228.771 19.3802 228.171 19.168 227.389 18.9587C226.182 18.6501 225.183 18.2479 224.39 17.7521C223.596 17.2562 223.007 16.6612 222.621 15.9669C222.235 15.2727 222.043 14.4628 222.043 13.5372C222.043 12.4904 222.301 11.5895 222.817 10.8347C223.333 10.0799 224.039 9.49862 224.936 9.09091C225.832 8.6832 226.84 8.47934 227.959 8.47934C228.633 8.47934 229.181 8.54545 229.605 8.67769C230.029 8.80992 230.358 8.94215 230.591 9.07438C230.825 9.20661 231.001 9.27273 231.121 9.27273C231.251 9.27273 231.444 9.20937 231.7 9.08264C231.955 8.95592 232.213 8.83196 232.474 8.71074C232.734 8.58953 232.952 8.52893 233.126 8.52893C233.321 8.52893 233.479 8.59504 233.598 8.72727C233.718 8.8595 233.799 9.0854 233.843 9.40496L234.267 12.4463C234.343 12.8871 234.353 13.2259 234.299 13.4628C234.245 13.6997 234.104 13.8512 233.875 13.9174C233.691 13.9614 233.495 13.9256 233.289 13.8099C233.082 13.6942 232.876 13.5096 232.669 13.2562C231.876 12.0551 231.151 11.2066 230.493 10.7107C229.836 10.2149 229.138 9.96694 228.399 9.96694C227.867 9.96694 227.465 10.0826 227.193 10.314C226.921 10.5455 226.785 10.8485 226.785 11.2231C226.785 11.4766 226.845 11.7135 226.965 11.9339C227.084 12.1543 227.304 12.3609 227.625 12.5537C227.945 12.7466 228.399 12.9366 228.986 13.124C230.561 13.6088 231.784 14.124 232.653 14.6694C233.522 15.2149 234.131 15.8402 234.478 16.5455C234.826 17.2507 235 18.0716 235 19.0083C235 20.551 234.484 21.7686 233.452 22.6612Z" fill="#333D4B"/>
<path fill-rule="evenodd" clip-rule="evenodd" d="M13.4893 4.00268C9.97493 0.491126 4.76554 -0.0143813 1.87661 2.87766C-1.01383 5.76821 -0.508336 10.9778 3.00008 14.4908C3.93606 15.4269 5.01454 16.1424 6.15301 16.6554C6.52651 14.4848 7.59748 12.3983 9.22344 10.6853C8.68496 10.4933 8.13297 10.3313 7.55698 10.1738C4.14606 9.23776 2.4511 6.39222 2.05511 3.05617C2.38262 3.45002 2.68082 3.86313 2.97814 4.27503C3.555 5.0742 4.12855 5.86879 4.90654 6.50922C6.11679 7.50576 7.44522 7.89045 8.89855 8.3113C8.95466 8.32755 9.01096 8.34385 9.06745 8.36025C9.75593 8.55975 10.3544 8.85525 10.9034 9.20026C12.3464 8.14574 13.9738 7.44373 15.6538 7.15423C15.1423 6.01571 14.4253 4.93869 13.4893 4.00268ZM7.54648 17.4894C7.76998 15.3159 8.82296 13.1903 10.5104 11.5028C14.0248 7.99124 19.2342 7.48423 22.1232 10.3778C25.0136 13.2683 24.5096 18.4779 20.9967 21.991C19.3092 23.6785 17.1838 24.7315 15.0103 24.9565C14.7208 24.985 14.4343 25 14.1538 25C12.2849 25 10.6154 24.3445 9.38544 23.1145C7.96947 21.7 7.31549 19.7019 7.54648 17.4894ZM12.6869 19.2729C13.8388 18.3939 15.0853 18.0459 16.4413 17.6754C19.8522 16.7394 21.5457 13.8938 21.9432 10.5578C21.6184 10.9494 21.3224 11.3598 21.0273 11.7688C20.4487 12.5709 19.8735 13.3681 19.0917 14.0108C17.8778 15.009 16.5463 15.3943 15.0864 15.8168L14.9308 15.8619C11.5934 16.8309 9.94343 19.6524 9.56244 22.936C9.89121 22.541 10.1924 22.1309 10.492 21.7229C11.1423 20.8374 11.7852 19.962 12.6869 19.2729Z" fill="#0E8784"/>
</svg>
